# xmcd
#
# Track frame offsets:
#	150
#	19657
#	40497
#	59765
#	78920
#	93610
#	112022
#	131770
#	146700
#	161712
#	181625
#
# Disc length: 2583 seconds
#
# Revision: 0
# Processed by: cddbd v1.4PL0 Copyright (c) Steve Scherf et al.
# Submitted via: dBpowerAMP V4.0
#
DISCID=9a0a150b
DTITLE=Mostly Robinson - I Can't Stop Loving You
DYEAR=1900
DGENRE=Country Rock
TTITLE0=The Son Of Hickory Holler's Tramp
TTITLE1=Living In The West
TTITLE2=I Can't Stop Loving You
TTITLE3=A Place In The Sun
TTITLE4=You Don't Know Me
TTITLE5=Tennessee Blues
TTITLE6=Long, Long Gone
TTITLE7=You've Still Got A Place In My Heart
TTITLE8=Stranger
TTITLE9=The Sound Of A Train
TTITLE10=Flash Of Fire
EXTD=Good Norwegian Group
EXTT0=
EXTT1=
EXTT2=
EXTT3=
EXTT4=
EXTT5=
EXTT6=
EXTT7=
EXTT8=
EXTT9=
EXTT10=
PLAYORDER=
